<svg width="256" height="135" viewBox="0 0 256 135" fill="none" xmlns="http://www.w3.org/2000/svg">
<g clip-path="url(#clip0_1864_23166)">
<path d="M5.83164 113.496H0.385468V111.549H13.6217V113.496H8.15833V129.421H5.83164V113.496Z" fill="white"/>
<path d="M14.3284 120.58C14.3284 119.063 14.2939 117.77 14.225 116.581H16.2759L16.3621 119.097H16.4482C17.0514 117.374 18.4647 116.288 20.0158 116.288C20.2743 116.288 20.4467 116.288 20.6707 116.357V118.546C20.4295 118.494 20.2054 118.477 19.8779 118.477C18.2406 118.477 17.0687 119.718 16.7585 121.459C16.6895 121.786 16.6723 122.165 16.6723 122.544V129.386H14.3456V120.562L14.3284 120.58Z" fill="white"/>
<path d="M29.9775 129.404L29.7707 127.784H29.7017C28.9951 128.783 27.6163 129.697 25.7722 129.697C23.187 129.697 21.8599 127.853 21.8599 126.026C21.8599 122.923 24.6175 121.217 29.5639 121.252V120.976C29.5639 119.942 29.2709 118.012 26.6512 118.012C25.462 118.012 24.2039 118.373 23.3077 118.959L22.7734 117.408C23.8419 116.719 25.3931 116.288 27.0131 116.288C30.9254 116.288 31.8906 118.959 31.8906 121.527V126.319C31.8906 127.422 31.9423 128.508 32.0801 129.386H29.9775V129.404ZM29.6156 122.855C27.0993 122.803 24.2039 123.251 24.2039 125.733C24.2039 127.267 25.2035 127.956 26.3754 127.956C28.0644 127.956 29.133 126.887 29.4949 125.802C29.5811 125.56 29.5983 125.285 29.5983 125.061V122.837L29.6156 122.855Z" fill="white"/>
<path d="M35.6477 120.045C35.6477 118.701 35.596 117.65 35.5443 116.581H37.6125L37.7504 118.684H37.8193C38.457 117.477 39.9392 116.288 42.059 116.288C43.817 116.288 46.5745 117.339 46.5745 121.752V129.404H44.2479V122.01C44.2479 119.942 43.4723 118.201 41.2835 118.201C39.7496 118.201 38.5604 119.287 38.1468 120.597C38.0433 120.89 37.9916 121.303 37.9916 121.683V129.404H35.665V120.045H35.6477Z" fill="white"/>
<path d="M50.0215 127.025C50.7281 127.456 51.9518 127.939 53.1065 127.939C54.8127 127.939 55.6055 127.094 55.6055 126.026C55.6055 124.957 54.9334 124.319 53.2271 123.682C50.9177 122.837 49.8147 121.579 49.8147 120.045C49.8147 117.977 51.4864 116.288 54.244 116.288C55.5538 116.288 56.6741 116.65 57.3807 117.081L56.7947 118.77C56.2949 118.46 55.3643 118.012 54.1578 118.012C52.779 118.012 52.0379 118.804 52.0379 119.77C52.0379 120.838 52.7963 121.303 54.468 121.958C56.6741 122.786 57.8288 123.889 57.8288 125.819C57.8288 128.094 56.0709 129.679 53.0376 129.679C51.6415 129.679 50.3317 129.318 49.4355 128.783L50.0043 127.025H50.0215Z" fill="white"/>
<path d="M60.8449 120.769C60.8449 119.132 60.7932 117.805 60.7415 116.598H62.8269L62.9648 118.787H63.0165C63.9471 117.219 65.481 116.305 67.5664 116.305C70.6687 116.305 73.0126 118.925 73.0126 122.803C73.0126 127.422 70.1861 129.697 67.1873 129.697C65.4638 129.697 63.9989 128.956 63.2405 127.68H63.1888V134.66H60.8794V120.769H60.8449ZM63.1543 124.199C63.1543 124.526 63.1888 124.854 63.2578 125.147C63.6714 126.784 65.0846 127.887 66.7392 127.887C69.2037 127.887 70.6342 125.853 70.6342 122.924C70.6342 120.373 69.2899 118.167 66.8253 118.167C65.2397 118.167 63.7403 119.287 63.2922 121.045C63.2233 121.338 63.1371 121.683 63.1371 121.993V124.216L63.1543 124.199Z" fill="white"/>
<path d="M87.5587 122.872C87.5587 127.611 84.2669 129.697 81.1819 129.697C77.7005 129.697 75.0118 127.163 75.0118 123.096C75.0118 118.804 77.8383 116.305 81.3715 116.305C84.9046 116.305 87.5415 118.977 87.5415 122.889L87.5587 122.872ZM77.3902 123.027C77.3902 125.836 78.9931 127.956 81.268 127.956C83.543 127.956 85.1803 125.871 85.1803 122.958C85.1803 120.786 84.0945 118.046 81.3197 118.046C78.545 118.046 77.3902 120.597 77.3902 123.027Z" fill="white"/>
<path d="M90.5059 120.58C90.5059 119.063 90.4714 117.77 90.4025 116.581H92.4534L92.5396 119.097H92.6257C93.2289 117.374 94.6422 116.288 96.1933 116.288C96.4518 116.288 96.6242 116.288 96.8482 116.357V118.546C96.607 118.494 96.3829 118.477 96.0554 118.477C94.4181 118.477 93.2462 119.718 92.936 121.459C92.867 121.786 92.8498 122.165 92.8498 122.544V129.386H90.5231V120.562L90.5059 120.58Z" fill="white"/>
<path d="M102.605 112.893V116.581H105.948V118.356H102.605V125.268C102.605 126.87 103.07 127.767 104.363 127.767C104.966 127.767 105.414 127.698 105.707 127.594L105.81 129.369C105.362 129.542 104.638 129.697 103.725 129.697C102.656 129.697 101.76 129.335 101.209 128.715C100.571 128.008 100.312 126.87 100.312 125.371V118.374H98.3304V116.599H100.312V113.514L102.605 112.91V112.893Z" fill="white"/>
<path d="M125.475 129.404C124.958 128.887 124.493 128.387 123.803 127.663C122.252 129.076 120.546 129.697 118.581 129.697C115.117 129.697 113.083 127.353 113.083 124.682C113.083 122.252 114.548 120.58 116.565 119.459V119.373C115.651 118.219 115.083 116.909 115.083 115.651C115.083 113.462 116.668 111.239 119.633 111.239C121.856 111.239 123.579 112.721 123.579 115.03C123.579 116.909 122.476 118.391 119.667 119.804V119.89C121.184 121.648 122.873 123.579 124.01 124.854C124.837 123.613 125.372 121.89 125.734 119.632H127.854C127.371 122.441 126.613 124.664 125.286 126.215C126.251 127.232 127.164 128.232 128.25 129.387H125.475V129.404ZM122.649 126.336C121.597 125.181 119.598 122.993 117.633 120.718C116.651 121.338 115.324 122.458 115.324 124.337C115.324 126.388 116.823 127.956 118.96 127.956C120.512 127.956 121.787 127.284 122.649 126.353V126.336ZM117.22 115.427C117.22 116.702 117.823 117.684 118.581 118.649C120.391 117.615 121.546 116.667 121.546 115.151C121.546 114.048 120.925 112.841 119.46 112.841C117.995 112.841 117.22 114.065 117.22 115.427Z" fill="#F90808"/>
<path d="M145.174 121.028H138.246V127.491H146.002V129.421H135.937V111.549H145.588V113.479H138.246V119.132H145.174V121.045V121.028Z" fill="white"/>
<path d="M149.966 116.581L151.81 119.322C152.292 120.045 152.689 120.683 153.12 121.407H153.171C153.602 120.649 154.033 119.994 154.464 119.304L156.239 116.581H158.773L154.395 122.786L158.893 129.404H156.256L154.361 126.526C153.861 125.785 153.447 125.061 152.982 124.285H152.93C152.516 125.061 152.068 125.733 151.568 126.526L149.724 129.404H147.156L151.724 122.855L147.363 116.581H149.966Z" fill="white"/>
<path d="M161.168 120.769C161.168 119.132 161.117 117.805 161.065 116.598H163.15L163.288 118.787H163.34C164.27 117.219 165.804 116.305 167.89 116.305C170.992 116.305 173.336 118.925 173.336 122.803C173.336 127.422 170.509 129.697 167.511 129.697C165.787 129.697 164.322 128.956 163.564 127.68H163.512V134.66H161.203V120.769H161.168ZM163.478 124.199C163.478 124.526 163.512 124.854 163.581 125.147C163.995 126.784 165.408 127.887 167.062 127.887C169.527 127.887 170.958 125.853 170.958 122.924C170.958 120.373 169.613 118.167 167.149 118.167C165.563 118.167 164.064 119.287 163.616 121.045C163.547 121.338 163.46 121.683 163.46 121.993V124.216L163.478 124.199Z" fill="white"/>
<path d="M177.576 123.423C177.627 126.577 179.627 127.87 181.971 127.87C183.642 127.87 184.659 127.577 185.521 127.215L185.935 128.87C185.125 129.249 183.694 129.68 181.66 129.68C177.714 129.68 175.352 127.06 175.352 123.217C175.352 119.373 177.645 116.305 181.385 116.305C185.573 116.305 186.658 119.976 186.658 122.338C186.658 122.82 186.624 123.182 186.572 123.423H177.576ZM184.401 121.752C184.418 120.287 183.797 117.977 181.178 117.977C178.799 117.977 177.783 120.132 177.593 121.752H184.383H184.401Z" fill="white"/>
<path d="M200.619 110.583V126.095C200.619 127.232 200.67 128.525 200.722 129.404H198.654L198.533 127.181H198.464C197.758 128.611 196.206 129.697 194.121 129.697C191.019 129.697 188.623 127.077 188.623 123.182C188.606 118.891 191.26 116.288 194.38 116.288C196.344 116.288 197.671 117.219 198.24 118.236H198.292V110.583H200.601H200.619ZM198.309 121.803C198.309 121.493 198.275 121.114 198.206 120.804C197.844 119.339 196.586 118.115 194.828 118.115C192.415 118.115 190.967 120.235 190.967 123.044C190.967 125.647 192.26 127.801 194.776 127.801C196.344 127.801 197.758 126.75 198.188 125.009C198.275 124.699 198.309 124.371 198.309 124.009V121.786V121.803Z" fill="white"/>
<path d="M207.116 112.962C207.116 113.755 206.565 114.41 205.634 114.41C204.789 114.41 204.221 113.755 204.221 112.962C204.221 112.169 204.807 111.514 205.668 111.514C206.53 111.514 207.099 112.152 207.116 112.962ZM204.514 129.404V116.581H206.84V129.404H204.514Z" fill="white"/>
<path d="M213.51 112.893V116.581H216.854V118.356H213.51V125.268C213.51 126.87 213.975 127.767 215.268 127.767C215.871 127.767 216.319 127.698 216.612 127.594L216.716 129.369C216.268 129.542 215.544 129.697 214.63 129.697C213.562 129.697 212.666 129.335 212.114 128.715C211.476 128.008 211.218 126.87 211.218 125.371V118.374H209.236V116.599H211.218V113.514L213.51 112.91V112.893Z" fill="white"/>
<path d="M222.093 112.962C222.093 113.755 221.541 114.41 220.611 114.41C219.766 114.41 219.198 113.755 219.198 112.962C219.198 112.169 219.784 111.514 220.645 111.514C221.507 111.514 222.076 112.152 222.093 112.962ZM219.491 129.404V116.581H221.817V129.404H219.491Z" fill="white"/>
<path d="M237.294 122.872C237.294 127.611 234.002 129.697 230.917 129.697C227.436 129.697 224.747 127.163 224.747 123.096C224.747 118.804 227.574 116.305 231.107 116.305C234.64 116.305 237.277 118.977 237.277 122.889L237.294 122.872ZM227.126 123.027C227.126 125.836 228.728 127.956 231.003 127.956C233.278 127.956 234.916 125.871 234.916 122.958C234.916 120.786 233.83 118.046 231.055 118.046C228.28 118.046 227.126 120.597 227.126 123.027Z" fill="white"/>
<path d="M240.241 120.045C240.241 118.701 240.189 117.65 240.138 116.581H242.206L242.344 118.684H242.413C243.05 117.477 244.533 116.288 246.652 116.288C248.41 116.288 251.168 117.339 251.168 121.752V129.404H248.841V122.01C248.841 119.942 248.066 118.201 245.877 118.201C244.343 118.201 243.154 119.287 242.74 120.597C242.637 120.89 242.585 121.303 242.585 121.683V129.404H240.258V120.045H240.241Z" fill="white"/>
<path d="M161.048 50.5894C160.462 43.1612 158.066 36.3363 153.447 30.3903C147.484 22.7209 139.435 18.5328 130.146 16.4302C122.735 14.7584 115.255 14.5688 107.723 15.3616C100.778 16.0683 94.1079 17.7573 87.9551 21.1008C79.286 25.7886 73.0815 32.5964 70.3412 42.2133C68.0835 50.1758 68.2731 58.2072 70.5997 66.1179C72.9264 74.0631 77.5798 80.3883 84.6633 84.7831C90.368 88.3162 96.6586 90.1259 103.242 91.0738C109.654 92.0045 116.099 92.1251 122.545 91.6942C128.681 91.2806 134.713 90.3155 140.504 88.1439C148.897 85.0072 155.171 79.5438 158.824 71.2883C159.617 69.5131 160.134 67.9448 160.806 65.9973H159.307C150.724 65.9973 142.141 66.0317 133.575 65.98C132.059 65.98 130.973 66.0662 130.06 67.7035C128.767 70.0474 126.285 70.7368 123.769 71.4951C119.477 72.7705 115.1 72.8222 110.705 72.2018C108.344 71.8743 106.034 71.2539 103.983 69.9785C100.743 67.962 99.33 64.9115 98.9509 61.1198H161.117C161.117 57.5005 161.341 54.0191 161.065 50.5894H161.048ZM98.9164 45.9705C99.7264 42.2478 101.45 39.2662 104.69 37.3359C108.24 35.1988 112.17 34.6301 116.237 34.7162C119.943 34.7852 123.493 35.4918 126.63 37.5944C129.577 39.5592 131.025 42.3684 131.318 45.9877H98.8992L98.9164 45.9705Z" fill="white"/>
<path d="M254.236 16.861C253.822 17.3781 253.546 17.7228 253.253 18.0675C245.032 28.2015 236.019 39.1111 227.763 49.2279L212.2 29.925C215.32 25.8059 218.439 21.6868 221.576 17.5849C221.869 17.2057 222.472 16.8438 222.92 16.8438C233.089 16.8093 243.274 16.8093 253.443 16.8093C253.615 16.8093 253.788 16.8093 254.219 16.8438L254.236 16.861Z" fill="white"/>
<path d="M224.058 52.1233L206.427 71.926C206.151 72.2534 205.892 72.5292 205.668 72.8222C201.308 78.4924 196.965 84.1799 192.587 89.8501C192.294 90.2293 191.708 90.6084 191.243 90.6084C181.04 90.6429 170.82 90.6429 160.617 90.6429C160.41 90.6429 160.203 90.6084 159.841 90.5912C160.134 90.1948 160.358 89.8846 160.582 89.6088C170.13 77.9064 179.661 66.2041 189.244 54.5361C189.83 53.8295 189.83 53.3814 189.261 52.6576C180.195 41.1275 171.164 29.563 162.116 17.9985C161.875 17.6883 161.651 17.3781 161.289 16.9127C161.72 16.8783 161.996 16.8266 162.288 16.8266C173.06 16.8266 183.832 16.8266 194.621 16.8093C195.327 16.8093 195.707 17.0678 196.086 17.6021C199.757 22.6347 224.041 52.1233 224.041 52.1233H224.058Z" fill="#F90808"/>
<path d="M255.615 90.5397C255.253 90.5741 254.994 90.6258 254.736 90.6258C243.929 90.6258 233.106 90.6258 222.3 90.6431C221.593 90.6431 221.214 90.3846 220.835 89.8503C217.509 85.352 213.303 79.699 209.96 75.2008L227.643 55.5015C236.26 66.3249 246.204 78.5615 254.787 89.4022C255.046 89.7296 255.287 90.0743 255.632 90.5052L255.615 90.5397Z" fill="white"/>
<path d="M46.0058 40.6106V41.8515C46.0058 48.6937 46.0058 55.5359 46.0058 62.3608C46.0058 67.2038 47.5569 69.1168 52.3999 69.3754C55.5538 69.5477 58.7423 69.0307 61.9134 68.8238C62.2237 68.8066 62.5339 68.7377 62.9648 68.686V69.8235C62.9648 75.9935 62.9475 82.1635 62.982 88.3163C62.982 89.2125 62.689 89.6089 61.8617 89.7296C57.7943 90.2983 53.7442 91.0739 49.6596 91.3669C45.4715 91.6599 41.2318 91.6599 37.0265 91.4358C32.1146 91.16 27.4785 89.6951 23.4111 86.8169C17.6202 82.6806 15.2418 76.7863 15.1384 69.9269C15.0005 60.6546 15.0867 51.3651 15.0867 42.0756V40.6795H5.22843V16.8267H13.3287C15.1901 16.8267 14.9143 16.8956 15.0005 15.3273C15.2418 10.7945 15.4314 6.26179 15.5865 1.74629C15.6037 0.901786 15.8623 0.677734 16.6895 0.677734C25.9446 0.694969 35.1824 0.677734 44.4374 0.694969C44.7477 0.694969 45.0579 0.729439 45.4887 0.763908V16.8267H63.7059V40.6106H46.0058Z" fill="white"/>
</g>
<defs>
<clipPath id="clip0_1864_23166">
<rect width="255.229" height="134" fill="white" transform="translate(0.385468 0.6604)"/>
</clipPath>
</defs>
</svg>
